<mxfile host="65bd71144e">
    <diagram id="S-IaN1os5_s3py0ZpzAt" name="Page-1">
        <mxGraphModel dx="1317" dy="724" grid="1" gridSize="10" guides="1" tooltips="1" connect="1" arrows="1" fold="1" page="1" pageScale="1" pageWidth="850" pageHeight="1100" math="0" shadow="0">
            <root>
                <mxCell id="0"/>
                <mxCell id="1" parent="0"/>
                <mxCell id="5" value="" style="shape=ext;double=1;rounded=0;whiteSpace=wrap;html=1;" parent="1" vertex="1">
                    <mxGeometry x="160" y="60" width="520" height="490" as="geometry"/>
                </mxCell>
                <mxCell id="6" value="VPC" style="text;strokeColor=none;fillColor=none;html=1;fontSize=24;fontStyle=1;verticalAlign=middle;align=center;" parent="1" vertex="1">
                    <mxGeometry x="160" y="20" width="100" height="40" as="geometry"/>
                </mxCell>
                <mxCell id="42" style="edgeStyle=orthogonalEdgeStyle;html=1;exitX=1;exitY=0.44;exitDx=0;exitDy=0;entryX=0;entryY=1;entryDx=0;entryDy=0;strokeWidth=2;fontSize=20;endArrow=classic;endFill=1;exitPerimeter=0;" parent="1" source="7" target="18" edge="1">
                    <mxGeometry relative="1" as="geometry"/>
                </mxCell>
                <mxCell id="7" value="" style="shape=ext;double=1;rounded=1;whiteSpace=wrap;html=1;fillColor=#60a917;fontColor=#ffffff;strokeColor=#2D7600;" parent="1" vertex="1">
                    <mxGeometry x="250" y="190" width="140" height="100" as="geometry"/>
                </mxCell>
                <mxCell id="43" style="edgeStyle=orthogonalEdgeStyle;html=1;exitX=0;exitY=0.4;exitDx=0;exitDy=0;entryX=1;entryY=1;entryDx=0;entryDy=0;strokeWidth=2;fontSize=20;endArrow=classic;endFill=1;exitPerimeter=0;" parent="1" source="9" target="18" edge="1">
                    <mxGeometry relative="1" as="geometry"/>
                </mxCell>
                <mxCell id="9" value="" style="shape=ext;double=1;rounded=1;whiteSpace=wrap;html=1;fillColor=#60a917;fontColor=#ffffff;strokeColor=#2D7600;" parent="1" vertex="1">
                    <mxGeometry x="450" y="190" width="140" height="100" as="geometry"/>
                </mxCell>
                <mxCell id="45" style="edgeStyle=orthogonalEdgeStyle;html=1;exitX=0.75;exitY=0;exitDx=0;exitDy=0;entryX=0;entryY=0.5;entryDx=0;entryDy=0;strokeWidth=2;fontSize=20;endArrow=classic;endFill=1;" parent="1" source="12" target="20" edge="1">
                    <mxGeometry relative="1" as="geometry"/>
                </mxCell>
                <mxCell id="12" value="" style="shape=ext;double=1;rounded=1;whiteSpace=wrap;html=1;fillColor=#003600;fontColor=#ffffff;strokeColor=#005700;" parent="1" vertex="1">
                    <mxGeometry x="450" y="380" width="140" height="100" as="geometry"/>
                </mxCell>
                <mxCell id="13" value="&lt;font style=&quot;font-size: 20px;&quot;&gt;Public &lt;br style=&quot;&quot;&gt;Subnet A&lt;/font&gt;" style="text;strokeColor=none;fillColor=none;html=1;fontSize=24;fontStyle=1;verticalAlign=middle;align=center;" parent="1" vertex="1">
                    <mxGeometry x="270" y="140" width="100" height="40" as="geometry"/>
                </mxCell>
                <mxCell id="14" value="&lt;font style=&quot;font-size: 20px;&quot;&gt;Public &lt;br style=&quot;&quot;&gt;Subnet B&lt;/font&gt;" style="text;strokeColor=none;fillColor=none;html=1;fontSize=24;fontStyle=1;verticalAlign=middle;align=center;" parent="1" vertex="1">
                    <mxGeometry x="470" y="140" width="100" height="40" as="geometry"/>
                </mxCell>
                <mxCell id="15" value="&lt;font style=&quot;font-size: 20px;&quot;&gt;Private &lt;br&gt;Subnet A&lt;/font&gt;" style="text;strokeColor=none;fillColor=none;html=1;fontSize=24;fontStyle=1;verticalAlign=middle;align=center;" parent="1" vertex="1">
                    <mxGeometry x="270" y="490" width="100" height="40" as="geometry"/>
                </mxCell>
                <mxCell id="16" value="&lt;font style=&quot;font-size: 20px;&quot;&gt;Private&amp;nbsp;&lt;br style=&quot;&quot;&gt;Subnet B&lt;/font&gt;" style="text;strokeColor=none;fillColor=none;html=1;fontSize=24;fontStyle=1;verticalAlign=middle;align=center;" parent="1" vertex="1">
                    <mxGeometry x="470" y="490" width="100" height="40" as="geometry"/>
                </mxCell>
                <mxCell id="18" value="Internet Gateway" style="rhombus;whiteSpace=wrap;html=1;fontSize=20;fillColor=#1ba1e2;fontColor=#ffffff;strokeColor=#006EAF;" parent="1" vertex="1">
                    <mxGeometry x="320" y="10" width="200" height="100" as="geometry"/>
                </mxCell>
                <mxCell id="19" value="NAT Gateway &lt;br&gt;A" style="rhombus;whiteSpace=wrap;html=1;fontSize=20;fillColor=#0050ef;fontColor=#ffffff;strokeColor=#001DBC;" parent="1" vertex="1">
                    <mxGeometry x="110" y="260" width="100" height="120" as="geometry"/>
                </mxCell>
                <mxCell id="20" value="NAT Gateway &lt;br&gt;B" style="rhombus;whiteSpace=wrap;html=1;fontSize=20;fillColor=#0050ef;fontColor=#ffffff;strokeColor=#001DBC;" parent="1" vertex="1">
                    <mxGeometry x="630" y="260" width="100" height="120" as="geometry"/>
                </mxCell>
                <mxCell id="31" value="EC2" style="ellipse;whiteSpace=wrap;html=1;aspect=fixed;fontSize=20;fillColor=#e3c800;fontColor=#000000;strokeColor=#B09500;" parent="1" vertex="1">
                    <mxGeometry x="480" y="390" width="80" height="80" as="geometry"/>
                </mxCell>
                <mxCell id="32" value="EC2" style="ellipse;whiteSpace=wrap;html=1;aspect=fixed;fontSize=20;fillColor=#e3c800;fontColor=#000000;strokeColor=#B09500;" parent="1" vertex="1">
                    <mxGeometry x="280" y="200" width="80" height="80" as="geometry"/>
                </mxCell>
                <mxCell id="47" style="edgeStyle=orthogonalEdgeStyle;html=1;exitX=0.5;exitY=1;exitDx=0;exitDy=0;entryX=0.5;entryY=0;entryDx=0;entryDy=0;strokeWidth=2;fontSize=20;endArrow=classic;endFill=1;dashed=1;" parent="1" source="33" target="31" edge="1">
                    <mxGeometry relative="1" as="geometry">
                        <Array as="points">
                            <mxPoint x="520" y="330"/>
                            <mxPoint x="520" y="330"/>
                        </Array>
                    </mxGeometry>
                </mxCell>
                <mxCell id="33" value="EC2" style="ellipse;whiteSpace=wrap;html=1;aspect=fixed;fontSize=20;fillColor=#e3c800;fontColor=#000000;strokeColor=#B09500;" parent="1" vertex="1">
                    <mxGeometry x="480" y="200" width="80" height="80" as="geometry"/>
                </mxCell>
                <mxCell id="44" style="edgeStyle=orthogonalEdgeStyle;html=1;exitX=0.25;exitY=0;exitDx=0;exitDy=0;entryX=1;entryY=0.5;entryDx=0;entryDy=0;strokeWidth=2;fontSize=20;endArrow=classic;endFill=1;" parent="1" source="10" target="19" edge="1">
                    <mxGeometry relative="1" as="geometry"/>
                </mxCell>
                <mxCell id="10" value="" style="shape=ext;double=1;rounded=1;whiteSpace=wrap;html=1;fillColor=#003600;fontColor=#ffffff;strokeColor=#005700;" parent="1" vertex="1">
                    <mxGeometry x="250" y="380" width="140" height="100" as="geometry"/>
                </mxCell>
                <mxCell id="30" value="EC2" style="ellipse;whiteSpace=wrap;html=1;aspect=fixed;fontSize=20;fillColor=#e3c800;fontColor=#000000;strokeColor=#B09500;" parent="1" vertex="1">
                    <mxGeometry x="280" y="390" width="80" height="80" as="geometry"/>
                </mxCell>
                <mxCell id="46" style="edgeStyle=orthogonalEdgeStyle;html=1;exitX=0.5;exitY=1;exitDx=0;exitDy=0;entryX=0.5;entryY=0;entryDx=0;entryDy=0;strokeWidth=2;fontSize=20;endArrow=classic;endFill=1;dashed=1;" parent="1" source="32" target="30" edge="1">
                    <mxGeometry relative="1" as="geometry"/>
                </mxCell>
            </root>
        </mxGraphModel>
    </diagram>
</mxfile>